Coordinates
version=1
nRows=13
nColumns=40
inDegrees=yes

Units are S.I. units (second, meters, Newtons, ...)
If the header above contains a line with 'inDegrees', this indicates whether rotational values are in degrees (yes) or radians (no).

endheader
time	pelvis_tilt	pelvis_list	pelvis_rotation	pelvis_tx	pelvis_ty	pelvis_tz	hip_flexion_r	hip_adduction_r	hip_rotation_r	knee_angle_r	knee_angle_r_beta	ankle_angle_r	subtalar_angle_r	mtp_angle_r	hip_flexion_l	hip_adduction_l	hip_rotation_l	knee_angle_l	knee_angle_l_beta	ankle_angle_l	subtalar_angle_l	mtp_angle_l	lumbar_extension	lumbar_bending	lumbar_rotation	arm_flex_r	arm_add_r	arm_rot_r	elbow_flex_r	pro_sup_r	wrist_flex_r	wrist_dev_r	arm_flex_l	arm_add_l	arm_rot_l	elbow_flex_l	pro_sup_l	wrist_flex_l	wrist_dev_l
     12.00000000	     -3.63863754	     -0.11723023	   -175.89387545	      0.28331859	      0.71163628	     -0.92840294	     47.62137544	    -42.18280304	    -12.90273702	     69.35737573	      1.21051457	     12.03117324	      0.00000000	      0.00000000	     52.42812275	    -37.45171373	     -3.74236978	     66.41853449	      1.15922211	      5.89184040	      0.00000000	      0.00000000	    -70.80042692	      4.34388335	     -5.08674185	     54.07722284	      2.08040284	     31.18687510	      3.02549559	     10.41285768	      0.00000000	      0.00000000	     59.89115781	     -9.63270765	     68.14265560	      5.74867221	     86.66967508	      0.00000000	      0.00000000
     12.00500000	     -3.69783636	     -0.05699701	   -175.83184082	      0.28321035	      0.71176170	     -0.92823777	     47.43299758	    -42.21235454	    -13.09983067	     69.33549979	      1.21013276	     12.04939302	      0.00000000	      0.00000000	     52.43878531	    -37.45339459	     -3.64553008	     66.44081399	      1.15961096	      5.88268562	      0.00000000	      0.00000000	    -70.85744186	      4.45355091	     -5.08652481	     54.10529375	      2.13648086	     31.63233635	      3.16310347	      8.68239961	      0.00000000	      0.00000000	     59.85346737	     -9.67194509	     67.63948826	      5.81180330	     86.73985120	      0.00000000	      0.00000000
     12.01000000	     -3.71101798	     -0.07183905	   -175.86848157	      0.28312523	      0.71177143	     -0.92828495	     47.45044914	    -42.19780377	    -13.05348379	     69.34315311	      1.21026634	     12.06202264	      0.00000000	      0.00000000	     52.38473768	    -37.47892117	     -3.70499467	     66.44741612	      1.15972619	      5.89564279	      0.00000000	      0.00000000	    -70.86698096	      4.41379169	     -5.08954297	     54.09180895	      2.12439906	     31.69478522	      3.17179022	      8.67109668	      0.00000000	      0.00000000	     59.85354187	     -9.65389179	     67.67092553	      5.75792868	     86.65628560	      0.00000000	      0.00000000
     12.01500000	     -3.69686879	     -0.04727729	   -175.84083313	      0.28308615	      0.71174938	     -0.92821538	     47.42819603	    -42.20279128	    -13.10908541	     69.33811096	      1.21017833	     12.04967995	      0.00000000	      0.00000000	     52.43842669	    -37.45685226	     -3.62486450	     66.45529625	      1.15986372	      5.91146759	      0.00000000	      0.00000000	    -70.85610061	      4.45516018	     -5.07509014	     54.13670403	      2.15846277	     31.32568837	      3.18787469	      8.55910040	      0.00000000	      0.00000000	     59.85401050	     -9.65383828	     67.73288951	      5.75860829	     86.70844254	      0.00000000	      0.00000000
     12.02000000	     -3.69972183	     -0.05948366	   -175.90250892	      0.28302037	      0.71175047	     -0.92830356	     47.47965590	    -42.15796162	    -13.02326486	     69.34533878	      1.21030448	     12.04380574	      0.00000000	      0.00000000	     52.38195330	    -37.50671763	     -3.69549869	     66.44235725	      1.15963790	      5.90125565	      0.00000000	      0.00000000	    -70.86069567	      4.39821800	     -5.07958163	     54.11974921	      2.15246840	     31.42483608	      3.15868709	      8.79768390	      0.00000000	      0.00000000	     59.84762155	     -9.67953148	     67.64523103	      5.78628047	     86.68781084	      0.00000000	      0.00000000
     12.02500000	     -3.69289630	     -0.02906313	   -175.84518855	      0.28298329	      0.71171020	     -0.92815279	     47.41919266	    -42.19139395	    -13.12015692	     69.34541714	      1.21030585	     12.07406309	      0.00000000	      0.00000000	     52.45168865	    -37.45613510	     -3.57122225	     66.46366654	      1.16000981	      5.94665562	      0.00000000	      0.00000000	    -70.84797488	      4.47478960	     -5.08849818	     54.11336230	      2.14110798	     31.66551194	      3.13264700	      8.83863832	      0.00000000	      0.00000000	     59.83370998	     -9.68378859	     67.65383311	      5.76474014	     86.74971303	      0.00000000	      0.00000000
     12.03000000	     -3.67555442	     -0.01957599	   -175.85032840	      0.28290383	      0.71165359	     -0.92812161	     47.43461772	    -42.18892997	    -13.12830244	     69.34972508	      1.21038104	     12.08128461	      0.00000000	      0.00000000	     52.49546010	    -37.47033075	     -3.57453971	     66.49954633	      1.16063603	      5.90973778	      0.00000000	      0.00000000	    -70.82947741	      4.47423787	     -5.08089007	     54.13443132	      2.15516781	     31.39394801	      3.14294169	      8.70763976	      0.00000000	      0.00000000	     59.81858081	     -9.68609005	     67.63621301	      5.77267496	     86.75195488	      0.00000000	      0.00000000
     12.03500000	     -3.60829382	     -0.01092712	   -175.79319812	      0.28298826	      0.71146262	     -0.92804416	     47.50406420	    -42.21139810	    -13.13421832	     69.37503777	      1.21082283	     12.00405080	      0.00000000	      0.00000000	     52.62142441	    -37.36813650	     -3.41317386	     66.50601703	      1.16074897	      5.97933905	      0.00000000	      0.00000000	    -70.74541997	      4.49791348	     -5.00563961	     54.04776677	      1.90063891	     29.85160486	      2.55851227	     15.69866181	      0.00000000	      0.00000000	     59.88555184	     -9.81530898	     69.70795528	      6.05614066	     86.20323163	      0.00000000	      0.00000000
     12.04000000	     -3.71740774	     -0.01728871	   -175.88784000	      0.28282491	      0.71172810	     -0.92811790	     47.40635093	    -42.13663325	    -13.08131950	     69.33998973	      1.21021112	     12.06169066	      0.00000000	      0.00000000	     52.41917279	    -37.49088822	     -3.57539113	     66.51580031	      1.16091972	      5.99476880	      0.00000000	      0.00000000	    -70.87341182	      4.45656496	     -5.04101861	     53.65971622	      1.96715240	     33.44777292	      3.21561517	      8.57349846	      0.00000000	      0.00000000	     59.83528314	     -9.66602310	     67.70861775	      5.77472332	     86.72047521	      0.00000000	      0.00000000
     12.04500000	     -3.73589911	     -0.01300850	   -175.89547704	      0.28275608	      0.71175746	     -0.92809450	     47.37631163	    -42.13703241	    -13.09059322	     69.33397498	      1.21010615	     12.04561592	      0.00000000	      0.00000000	     52.38519209	    -37.49657727	     -3.56720816	     66.51261334	      1.16086410	      6.01575998	      0.00000000	      0.00000000	    -70.88682625	      4.46061764	     -5.06081980	     53.50400903	      1.93239341	     34.11930575	      3.22204368	      8.53549761	      0.00000000	      0.00000000	     59.82721024	     -9.67470530	     67.68528985	      5.74119042	     86.72959029	      0.00000000	      0.00000000
     12.05000000	     -3.76657669	     -0.09409888	   -176.02938018	      0.28260345	      0.71183864	     -0.92833732	     47.48304207	    -42.08811554	    -12.86875285	     69.35480999	      1.21046979	     12.09134724	      0.00000000	      0.00000000	     52.19158230	    -37.58285146	     -3.82456030	     66.50806578	      1.16078473	      6.01948789	      0.00000000	      0.00000000	    -70.92173845	      4.29608638	     -5.08741019	     53.73813697	      2.06382265	     32.46026314	      3.12231054	      9.44885548	      0.00000000	      0.00000000	     59.82792607	     -9.68040277	     67.47564897	      5.74723152	     86.79391499	      0.00000000	      0.00000000
     12.05500000	     -3.75312551	     -0.02829235	   -175.97060407	      0.28258010	      0.71179343	     -0.92817041	     47.41273352	    -42.09211107	    -12.99988469	     69.34260642	      1.21025679	     12.04630844	      0.00000000	      0.00000000	     52.29779679	    -37.54958810	     -3.64517977	     66.51691832	      1.16093923	      6.05758081	      0.00000000	      0.00000000	    -70.90514410	      4.38934803	     -5.04384730	     53.82412370	      2.05597137	     32.64014310	      3.18631451	      8.69638564	      0.00000000	      0.00000000	     59.82590777	     -9.67644538	     67.52323445	      5.76692577	     86.70948569	      0.00000000	      0.00000000
     12.06000000	     -3.73466491	     -0.03815676	   -175.96093047	      0.28253606	      0.71175512	     -0.92812756	     47.43075825	    -42.10672998	    -12.99024073	     69.34753378	      1.21034279	     12.08438477	      0.00000000	      0.00000000	     52.32043703	    -37.51687537	     -3.61892761	     66.53127063	      1.16118973	      6.06844319	      0.00000000	      0.00000000	    -70.87399240	      4.39612745	     -5.08003211	     53.74627760	      2.00590805	     33.23524670	      3.19520686	      8.66693547	      0.00000000	      0.00000000	     59.82698318	     -9.69220943	     67.62148828	      5.75178340	     86.71440078	      0.00000000	      0.00000000
